<svg width="226" height="306" viewBox="0 0 226 306" fill="none" xmlns="http://www.w3.org/2000/svg">
<path d="M0.457196 42.7969C0.605142 45.312 0.309249 48.123 1.93666 50.3422C4.8956 54.3368 11.8491 53.4491 16.1396 53.597C21.7615 53.8929 27.5314 54.0409 33.1534 54.3368C35.2247 58.9231 39.0713 62.7697 43.8056 65.1369C44.8412 65.5807 46.3207 64.841 45.8768 63.6574C44.5453 60.8464 43.9535 57.7395 43.8056 54.7806C45.7289 54.9285 47.8001 54.9286 49.7234 54.9286C51.7947 54.7806 54.3098 54.7806 56.2331 53.745C60.3756 51.6737 60.2276 46.7915 60.0797 42.7969C59.7838 34.0681 59.4879 25.4872 59.1921 16.7583C59.1921 15.2788 59.1921 13.6514 59.1921 12.172C59.1921 9.36096 59.1921 6.25408 57.7126 3.59104C56.0852 0.927998 52.9783 0.0403217 49.8714 0.0403217C41.4384 -0.107625 33.1534 0.188269 24.7204 0.336216C20.43 0.336216 16.2875 0.484161 11.997 0.484161C9.03809 0.484161 5.78328 0.632106 3.41613 2.40747C0.753089 4.18283 0.457196 7.14176 0.457196 9.95275C0.309249 11.1363 0.161284 12.4678 0.161284 13.6514C-0.134609 20.0131 0.0133464 26.5228 0.30924 32.8845C0.30924 36.1393 0.457196 39.5421 0.457196 42.7969ZM39.0713 23.4159C39.5151 21.9364 40.9946 20.9008 42.622 20.7529C44.6933 20.6049 46.3207 22.0844 46.7645 23.8597C46.9124 24.1556 46.9124 24.3036 46.9124 24.5995C46.9124 24.8954 46.9124 25.1913 46.7645 25.4872C46.6165 26.0789 46.3207 26.6707 45.8768 27.1146C45.433 27.7064 44.6933 28.1502 44.1015 28.2981C42.7699 28.742 41.2905 28.594 40.1069 27.4105C39.0713 26.3748 38.6275 24.8954 39.0713 23.4159ZM26.3479 23.4159C26.7917 21.9364 28.2712 20.9008 29.8986 20.7529C31.9698 20.6049 33.5973 22.0844 34.0411 23.8597C34.1891 24.1556 34.189 24.3036 34.189 24.5995C34.189 24.8954 34.1891 25.1913 34.0411 25.4872C33.8932 26.0789 33.5973 26.6707 33.1534 27.1146C32.7096 27.7064 31.9698 28.1502 31.378 28.2981C30.0465 28.742 28.5671 28.594 27.3835 27.4105C26.3479 26.3748 25.904 24.8954 26.3479 23.4159ZM14.3642 23.4159C14.808 21.9364 16.2875 20.9008 17.9149 20.7529C19.9861 20.6049 21.6136 22.0844 22.0574 23.8597C22.2054 24.1556 22.2054 24.3036 22.2054 24.5995C22.2054 24.8954 22.2054 25.1913 22.0574 25.4872C21.9095 26.0789 21.6136 26.6707 21.1697 27.1146C20.7259 27.7064 19.9861 28.1502 19.3944 28.2981C18.0628 28.742 16.5834 28.594 15.3998 27.4105C14.3642 26.3748 13.9203 24.8954 14.3642 23.4159Z" fill="#F8A2B4"/>
<path d="M44.1008 28.4459C44.8405 28.2979 45.4323 27.8541 45.8761 27.2623C46.32 26.6705 46.6158 26.2267 46.7638 25.6349C46.9117 25.339 46.9117 25.0431 46.9117 24.7472C46.9117 24.4513 46.9117 24.3034 46.7638 24.0075C46.3199 22.2321 44.8405 20.7527 42.6213 20.9006C40.9939 21.0485 39.6624 21.9362 39.0706 23.5636C38.6268 24.8952 39.0706 26.5226 39.9583 27.5582C41.2898 28.7418 42.7692 28.8897 44.1008 28.4459Z" fill="#F5EEE9"/>
<path d="M31.2297 28.4459C31.9694 28.2979 32.5612 27.8541 33.005 27.2623C33.4489 26.6705 33.7448 26.2267 33.8927 25.6349C34.0407 25.339 34.0407 25.0431 34.0407 24.7472C34.0407 24.4513 34.0407 24.3034 33.8927 24.0075C33.4489 22.2321 31.9694 20.7527 29.7502 20.9006C28.1228 21.0485 26.7913 21.9362 26.1995 23.5636C25.7557 24.8952 26.1995 26.5226 27.0872 27.5582C28.4187 28.7418 30.0461 28.8897 31.2297 28.4459Z" fill="#F5EEE9"/>
<path d="M19.2474 28.4459C19.9871 28.2979 20.5789 27.8541 21.0227 27.2623C21.4665 26.6705 21.7624 26.2267 21.9104 25.6349C22.0583 25.339 22.0584 25.0431 22.0584 24.7472C22.0584 24.4513 22.0583 24.3034 21.9104 24.0075C21.4666 22.2321 19.9871 20.7527 17.7679 20.9006C16.1404 21.0485 14.8089 21.9362 14.2171 23.5636C13.7732 24.8952 14.2171 26.5226 15.1048 27.5582C16.4363 28.7418 17.9158 28.8897 19.2474 28.4459Z" fill="#F5EEE9"/>
<path d="M137.161 108.633C137.013 108.633 136.865 108.781 136.717 108.781C137.013 108.781 137.013 108.633 137.161 108.633Z" fill="#FFC458"/>
<path d="M83.4551 109.521C83.603 110.113 83.751 110.705 83.8989 111.296C83.751 110.705 83.603 110.113 83.4551 109.521Z" fill="#FFC458"/>
<path d="M125.029 126.091C125.325 125.795 125.473 125.499 125.769 125.055C125.473 125.351 125.177 125.647 125.029 126.091Z" fill="#FFC458"/>
<path d="M146.778 81.1149C147.222 82.2985 147.518 83.482 147.962 84.6656C150.181 92.9506 150.329 101.532 148.406 109.817C148.11 123.132 150.477 136.595 147.222 149.762C146.926 150.798 146.63 151.981 146.334 153.017C145.743 155.384 144.707 158.343 143.523 161.302C150.329 165.001 156.543 169.735 162.165 175.357C163.792 176.984 165.272 178.612 166.751 180.387C170.302 184.678 173.557 189.264 176.368 194.146C177.255 195.774 178.143 197.401 179.031 199.028C181.694 204.354 183.913 209.976 185.54 215.894C185.984 217.522 186.428 219.297 186.872 220.924C187.612 224.031 188.203 227.286 188.499 230.541C188.499 230.837 188.499 230.985 188.499 231.133C193.381 230.393 197.968 228.618 201.371 224.179C207.14 216.338 206.253 204.65 206.401 194.886C206.549 181.423 206.549 167.812 206.697 154.348C206.697 154.053 206.697 153.609 206.697 153.313C206.697 152.869 206.697 152.425 206.697 152.129C206.549 138.666 206.401 125.055 206.105 111.592C205.957 101.827 206.845 90.1396 200.927 82.4464C195.305 75.0491 185.836 75.197 178.143 75.197C166.751 75.0491 155.507 75.0491 144.115 75.0491C144.855 76.3806 145.447 77.7121 145.891 79.0436C146.186 79.6354 146.482 80.3752 146.778 81.1149Z" fill="#FFC458"/>
<path d="M25.9047 82.2987C19.9869 89.9919 20.8745 101.828 20.7266 111.444C20.5786 125.647 20.2827 139.85 20.1348 154.053V154.201C20.1348 154.349 20.1348 154.349 20.1348 154.497C20.4307 168.7 20.7266 182.902 21.0225 197.105C21.1704 206.87 20.4307 218.558 26.4965 226.251C30.3431 231.281 35.9651 232.761 41.587 233.204C41.587 233.056 41.587 232.908 41.587 232.761C41.587 229.802 41.735 226.991 42.1789 224.032C42.3268 222.404 42.6227 220.629 42.9186 219.001C43.9542 213.675 45.4337 208.349 47.5049 203.171C48.2446 201.396 48.9844 199.768 49.7241 198.141C52.5351 192.075 56.2338 186.453 60.3763 181.127C61.8558 179.352 63.3352 177.576 64.8147 175.949C69.401 171.067 74.7271 166.776 80.3491 163.078C79.3135 162.042 78.4258 161.006 77.5381 159.823C72.36 153.313 68.9572 145.916 66.738 138.075C64.5188 132.009 63.3352 125.647 62.8914 119.285C62.0037 114.107 62.4475 108.781 63.0393 103.603C63.6311 97.8331 64.8147 92.2111 66.738 86.8851C68.2174 82.5946 70.1408 78.6 72.5079 74.7534C64.6668 74.7534 56.6776 74.7534 48.8365 74.9014C40.9953 75.1973 31.5267 74.9014 25.9047 82.2987Z" fill="#FFC458"/>
<path d="M132.573 108.042C132.425 108.633 132.425 109.225 132.277 109.669C132.277 109.077 132.425 108.633 132.573 108.042Z" fill="#FFC458"/>
<path d="M131.684 112.924C131.684 112.184 131.388 111.592 131.24 111C131.388 111.592 131.536 112.184 131.684 112.924Z" fill="#FFC458"/>
<path d="M114.376 141.626C114.376 141.478 114.376 141.478 114.376 141.626C115.411 138.371 117.039 135.412 118.962 132.601C116.891 133.341 114.672 133.932 112.452 134.228C108.458 134.82 104.315 134.524 100.469 133.636C101.504 135.56 102.392 137.779 102.984 139.998C104.611 143.845 105.647 147.987 106.091 152.278C107.866 152.278 109.641 152.13 111.565 151.834C111.713 148.135 112.748 144.585 114.376 141.626Z" fill="#FFBB99"/>
<path d="M111.859 130.825C116.889 130.085 121.623 128.014 125.618 125.055C126.358 124.02 126.949 123.132 127.541 122.096C128.133 121.061 128.725 120.025 129.317 118.989C129.612 118.25 130.056 117.658 130.352 116.918C129.021 118.694 126.653 119.581 124.434 118.989C123.251 118.842 121.919 118.25 121.031 117.362C118.073 114.107 119.996 108.929 123.99 107.893C125.618 107.45 127.097 107.746 128.429 108.485C128.577 108.633 128.725 108.633 129.021 108.781C129.169 108.781 129.169 108.929 129.317 108.929C129.612 109.225 129.908 109.521 130.204 109.817C130.352 109.965 130.5 110.113 130.648 110.261C130.796 110.556 130.944 110.852 131.092 111.148C131.388 111.74 131.536 112.332 131.536 113.072C131.684 112.184 131.98 111.296 132.127 110.409C132.127 110.261 132.127 110.113 132.275 109.817C132.423 109.225 132.423 108.633 132.571 108.189C133.163 108.633 133.755 108.929 134.347 109.077C134.643 109.077 134.791 109.225 135.086 109.225C135.234 109.225 135.382 109.225 135.382 109.225C135.53 109.225 135.678 109.225 135.678 109.225C135.826 109.225 135.974 109.225 135.974 109.225C136.122 109.225 136.27 109.225 136.27 109.225C136.418 109.225 136.566 109.225 136.566 109.077C136.714 109.077 136.862 108.929 137.01 108.929C137.01 108.337 137.01 107.598 137.01 107.006C136.862 107.006 136.714 106.858 136.714 106.71C136.122 107.006 135.53 107.154 134.791 107.154C133.903 107.154 133.459 106.414 133.607 105.674C133.607 105.526 133.755 105.378 133.755 105.23C133.903 104.935 134.199 104.787 134.495 104.639C134.495 104.491 134.347 104.491 134.199 104.343C132.275 102.419 131.98 99.3125 133.015 96.5016C133.015 95.17 133.015 93.8385 132.867 92.507C132.719 90.4357 132.571 88.2165 132.423 86.1453C132.423 85.8494 132.423 85.5535 132.275 85.2576C132.275 84.9617 132.275 84.6658 132.127 84.3699C131.832 84.3699 131.536 84.3699 131.24 84.5179C130.944 84.5179 130.648 84.5179 130.352 84.6658C129.76 84.6658 129.169 84.8138 128.725 84.8138C122.511 85.4056 116.149 86.1453 109.935 86.7371C109.788 86.7371 109.64 86.7371 109.492 86.7371C109.344 86.7371 109.196 86.5891 109.196 86.5891C109.196 84.9617 109.048 83.4822 109.048 81.8548C109.048 81.411 108.604 81.411 108.308 81.5589C108.308 81.5589 108.308 81.5589 108.16 81.7069L103.722 87.9206C103.278 88.0686 102.834 88.0686 102.39 88.2165C98.6915 88.6604 94.8449 88.3645 91.2942 88.2165C89.075 88.2165 86.8558 88.2165 84.7845 88.2165C83.601 88.2165 82.5654 88.2165 81.3818 88.2165C81.3818 90.1399 81.3818 92.0632 81.3818 94.1344C81.3818 95.17 81.3817 96.2057 81.5297 97.0933C81.6776 97.981 81.6776 99.1646 81.6776 100.2C81.3818 100.052 81.0859 100.052 80.79 99.9043H80.642C80.79 100.644 80.9379 101.384 81.0859 102.124C81.3818 103.159 81.5297 104.343 81.2338 105.378C81.2338 105.674 81.2338 105.822 81.0859 106.118C81.2338 106.118 81.2338 106.118 81.3818 106.118C83.0092 105.822 83.601 108.189 82.1215 108.633C81.3818 108.781 80.79 108.781 80.1982 108.633C80.0502 108.781 79.9023 109.077 79.7544 109.225C79.4585 109.521 79.0146 109.817 78.5708 109.965C78.2749 110.261 77.831 110.409 77.5352 110.556C77.6831 110.704 77.831 110.704 77.979 110.852C78.2749 111 78.4228 111.148 78.7187 111.148C79.9023 111.444 81.0859 111.444 82.2694 110.852C82.5653 110.704 83.0092 110.409 83.3051 110.261C83.453 110.852 83.6009 111.444 83.7489 112.036C83.8968 112.628 84.0448 113.22 84.1928 113.811C84.3407 114.255 84.4886 114.551 84.6366 114.995C84.9325 112.776 86.5599 110.704 88.927 109.965C92.9216 108.929 96.7682 112.036 96.4723 116.178C96.1764 119.581 92.6257 121.948 89.3709 121.209C88.4832 121.061 87.7435 120.765 87.0037 120.321C87.5955 121.505 88.3352 122.688 89.075 123.724C89.3709 124.02 89.6668 124.316 89.8147 124.611C89.9627 124.759 89.9627 124.759 90.1106 124.907C90.2586 125.055 90.5545 125.351 90.7024 125.499C90.8504 125.647 90.8504 125.647 90.9983 125.795C91.1463 125.943 91.4421 126.239 91.5901 126.387C91.738 126.387 91.738 126.535 91.738 126.535C92.0339 126.831 92.3298 127.127 92.6257 127.274C93.9572 127.866 95.2887 128.606 96.3244 129.642C101.355 130.825 106.681 131.565 111.859 130.825ZM96.6203 101.976C96.4723 103.159 96.0285 104.491 95.1408 105.23C94.2531 105.97 92.9216 105.822 92.1819 104.935C91.1462 103.751 91.1462 101.828 91.4421 100.2V100.052C91.5901 98.4249 92.0339 96.7974 93.8093 96.6495C96.6203 96.2057 96.9162 100.052 96.6203 101.976ZM96.9162 92.507C96.6203 92.359 96.4723 92.359 96.1764 92.359C93.8093 91.7673 91.4421 92.359 89.3709 93.9865L89.2229 94.1344C88.1873 94.5783 87.1517 92.9508 88.1873 92.2111C90.1106 90.7316 92.3298 89.844 94.697 89.9919C95.5847 89.9919 96.4723 90.1399 97.36 90.4357C97.508 90.4357 97.6559 90.5837 97.8038 90.5837C98.9874 90.8796 98.2477 92.9508 96.9162 92.507ZM122.511 101.976C122.363 103.159 121.919 104.491 121.031 105.23C120.144 105.97 118.812 105.822 118.073 104.935C117.037 103.751 117.037 101.828 117.333 100.2V100.052C117.481 98.4249 117.925 96.7974 119.7 96.6495C122.363 96.2057 122.807 100.052 122.511 101.976ZM117.333 89.844C117.481 89.844 117.629 89.696 117.777 89.696C118.664 89.4001 119.552 89.2522 120.44 89.2522C122.659 89.2522 124.878 89.9919 126.949 91.4714C127.985 92.359 126.949 93.9865 125.914 93.3947L125.766 93.2467C123.842 91.6193 121.327 91.1755 118.96 91.6193C118.664 91.6193 118.516 91.7673 118.22 91.7673C116.889 92.359 116.001 90.2878 117.333 89.844ZM102.242 107.006C103.278 104.787 104.314 102.715 105.497 100.496C106.237 99.0166 108.456 100.348 107.716 101.828C106.829 103.603 105.941 105.378 105.053 107.302L107.864 109.225C109.196 110.113 108.012 112.332 106.533 111.444C105.201 110.556 104.018 109.817 102.686 108.929C102.094 108.337 101.946 107.598 102.242 107.006ZM106.977 116.178C110.231 116.77 113.486 115.883 116.001 113.663C117.185 112.628 118.96 114.403 117.777 115.439C114.67 118.25 110.527 119.433 106.385 118.546C104.757 118.25 105.349 115.735 106.977 116.178Z" fill="#FFBB99"/>
<path d="M119.554 96.6494C117.927 96.9453 117.335 98.4247 117.187 100.052V100.2C116.891 101.828 117.039 103.751 117.927 104.934C118.667 105.822 119.998 105.97 120.886 105.23C121.774 104.491 122.217 103.011 122.365 101.975C122.809 100.052 122.365 96.2055 119.554 96.6494Z" fill="#1A3134"/>
<path d="M93.8103 96.6494C92.1829 96.9453 91.5911 98.4247 91.4432 100.052V100.2C91.1473 101.828 91.2952 103.751 92.1829 104.934C92.9226 105.822 94.2542 105.97 95.1418 105.23C96.0295 104.491 96.4734 103.011 96.6213 101.975C96.9172 100.052 96.6213 96.2055 93.8103 96.6494Z" fill="#1A3134"/>
<path d="M107.717 109.077L104.906 107.154C105.794 105.378 106.682 103.603 107.569 101.68C108.309 100.2 106.09 98.8688 105.35 100.348C104.314 102.567 103.279 104.639 102.095 106.858C101.799 107.45 101.947 108.189 102.539 108.633C103.871 109.521 105.054 110.261 106.386 111.148C107.865 112.184 109.049 109.965 107.717 109.077Z" fill="#FF9880"/>
<path d="M117.778 115.438C118.962 114.403 117.186 112.48 116.003 113.663C113.488 115.882 110.233 116.77 106.978 116.178C105.35 115.882 104.759 118.249 106.238 118.693C110.529 119.433 114.671 118.249 117.778 115.438Z" fill="#1A3134"/>
<path d="M118.074 91.9154C118.369 91.7675 118.517 91.7674 118.813 91.7674C121.18 91.1757 123.548 91.7675 125.619 93.3949L125.767 93.5428C126.802 93.9867 127.838 92.3592 126.802 91.6195C124.879 90.14 122.66 89.2523 120.293 89.4003C119.405 89.4003 118.517 89.5482 117.63 89.8441C117.482 89.8441 117.334 89.9921 117.186 89.9921C116.002 90.288 116.89 92.3592 118.074 91.9154Z" fill="#1A3134"/>
<path d="M97.8092 90.4355C97.6613 90.4355 97.5133 90.2876 97.3654 90.2876C96.4777 89.9917 95.59 89.8438 94.7024 89.8438C92.4832 89.8438 90.2639 90.5835 88.1926 92.0629C87.157 92.9506 88.1927 94.578 89.2283 93.9862L89.3762 93.8383C91.2996 92.2109 93.8147 91.7671 96.1818 92.2109C96.4777 92.2109 96.6257 92.3588 96.9216 92.3588C98.2531 92.9506 98.9928 90.8794 97.8092 90.4355Z" fill="#1A3134"/>
<path d="M112.303 134.228C114.523 133.932 116.742 133.34 118.813 132.601C120.588 130.234 122.66 128.014 124.879 126.091C125.175 125.795 125.323 125.499 125.619 125.055C121.624 128.162 116.742 130.234 111.86 130.825C106.681 131.565 101.355 130.825 96.6211 128.902C98.1006 130.234 99.2841 131.861 100.32 133.636C104.166 134.524 108.309 134.82 112.303 134.228Z" fill="#FF9880"/>
<path d="M82.4209 107.893C84.0483 107.598 83.3085 105.083 81.6811 105.378C81.5332 105.378 81.5332 105.378 81.3853 105.378C81.2373 106.266 80.9414 107.006 80.3496 107.746C81.0893 108.041 81.6811 108.041 82.4209 107.893Z" fill="#FF9880"/>
<path d="M133.906 104.935C133.759 105.083 133.759 105.23 133.759 105.378C133.611 106.118 134.054 106.858 134.942 106.858C135.682 106.858 136.274 106.71 136.865 106.414C135.978 105.822 135.386 105.23 134.794 104.343C134.35 104.491 134.054 104.639 133.906 104.935Z" fill="#FF9880"/>
<path d="M96.6228 115.291C96.9187 111.148 93.0721 108.042 89.0776 109.077C86.7104 109.669 85.083 111.74 84.7871 114.107C85.3789 115.883 86.2666 117.806 87.1543 119.433C87.894 119.877 88.7817 120.173 89.5214 120.321C92.7762 121.061 96.3269 118.842 96.6228 115.291Z" fill="#FF9880"/>
<path d="M130.65 110.113C130.502 109.965 130.354 109.817 130.206 109.669C129.91 109.373 129.614 109.077 129.318 108.781C129.17 108.781 129.17 108.633 129.022 108.633C128.875 108.485 128.727 108.337 128.431 108.337C127.099 107.597 125.62 107.45 123.992 107.745C119.998 108.781 118.074 114.107 121.033 117.214C121.921 118.25 123.105 118.841 124.436 118.841C126.655 119.433 128.875 118.546 130.354 116.77C130.354 116.77 130.354 116.622 130.502 116.622C130.65 116.03 130.946 115.291 131.094 114.699C131.242 114.107 131.39 113.367 131.538 112.776C131.538 112.036 131.242 111.444 131.094 110.852C130.946 110.704 130.798 110.408 130.65 110.113Z" fill="#FF9880"/>
<path d="M141.155 88.5124C142.043 88.3644 142.782 88.3644 143.67 88.5124C152.547 90.4357 149.144 106.266 141.007 107.302C141.303 113.959 141.155 120.765 138.344 126.979C135.829 132.748 130.947 137.483 124.733 138.962C124.289 139.406 123.845 139.702 123.105 139.85C122.366 139.998 121.774 139.998 121.034 139.702C120.59 139.554 119.998 139.258 119.555 138.962C118.667 138.075 118.223 136.743 118.667 135.559C119.407 133.192 122.366 132.157 124.289 133.636C124.437 133.784 124.585 133.784 124.585 133.932C124.881 134.228 125.029 134.524 125.325 134.82C135.681 131.269 137.308 118.989 137.012 108.781C136.864 108.781 136.716 108.929 136.569 108.929C136.421 108.929 136.273 108.929 136.273 109.077C136.125 109.077 135.977 109.077 135.977 109.077C135.829 109.077 135.681 109.077 135.681 109.077C135.533 109.077 135.385 109.077 135.385 109.077C135.237 109.077 135.089 109.077 135.089 109.077C134.793 109.077 134.645 109.077 134.349 108.929C133.758 108.781 133.166 108.485 132.574 108.041C132.426 108.633 132.426 109.225 132.278 109.669C132.278 109.817 132.278 110.113 132.13 110.261C131.982 111.148 131.834 112.036 131.538 112.924C131.39 113.515 131.242 114.255 131.094 114.847C130.947 115.439 130.651 116.178 130.503 116.77C130.503 116.77 130.503 116.918 130.355 116.918C130.059 117.658 129.615 118.398 129.319 118.989C128.727 120.025 128.136 121.061 127.544 122.096C126.952 123.132 126.36 124.168 125.62 125.055C125.325 125.351 125.177 125.647 124.881 126.091C122.514 128.014 120.442 130.233 118.815 132.601C116.892 135.264 115.412 138.37 114.229 141.477C112.601 144.584 111.566 148.135 111.122 151.834C110.086 160.414 112.601 169.735 119.111 175.357C119.851 175.949 120.738 176.541 121.478 177.132C126.656 180.387 131.094 178.908 134.793 175.357C138.344 171.954 141.155 166.48 143.226 161.302C144.41 158.343 145.445 155.384 146.037 153.017C146.333 151.982 146.777 150.798 146.925 149.762C150.18 136.743 147.812 123.132 148.108 109.817C150.032 101.68 149.884 92.9508 147.665 84.6658C147.369 83.4822 146.925 82.2986 146.481 81.1151C146.185 80.3753 145.889 79.6356 145.593 78.8958C145.001 77.5643 144.41 76.2328 143.818 74.9013C142.93 73.2739 142.043 71.7944 141.155 70.167C141.303 71.7944 141.451 73.2739 141.599 74.9013C141.747 79.3397 141.451 83.926 141.155 88.5124Z" fill="#853C46"/>
<path d="M81.9762 99.4604C81.8282 98.4248 81.8282 97.3891 81.8282 96.3535C81.8282 95.3179 81.6803 94.2823 81.6803 93.3946C81.6803 91.3233 81.6803 89.4 81.6803 87.4767C82.8638 87.4767 83.8995 87.4767 85.0831 87.4767C87.3023 87.4767 89.5215 87.4767 91.5927 87.4767C95.2914 87.4767 99.138 87.7726 102.689 87.4767C103.133 87.4767 103.576 87.3288 104.02 87.1808L108.459 80.9671C108.459 80.9671 108.459 80.8191 108.607 80.8191C108.902 80.6712 109.346 80.8191 109.346 81.115C109.346 82.7424 109.494 84.2219 109.494 85.8493C109.642 85.9972 109.79 85.9972 109.79 85.9972C109.938 85.9972 110.086 85.9972 110.234 85.9972C116.448 85.4055 122.809 84.6657 129.023 84.0739C129.615 84.0739 130.207 83.926 130.651 83.926C130.946 83.926 131.242 83.926 131.538 83.778C131.834 83.778 132.13 83.778 132.426 83.6301C132.426 83.926 132.426 84.2219 132.574 84.5178C132.574 84.8137 132.722 85.1096 132.722 85.4055C133.018 87.4767 133.166 89.6959 133.166 91.7672C133.166 93.0987 133.314 94.4302 133.314 95.7617C133.61 95.022 133.905 94.2823 134.349 93.5425C135.089 92.211 135.977 91.0274 137.16 89.9918C137.604 84.8137 138.048 79.6355 137.9 74.4574C137.752 71.2026 137.308 67.9477 136.421 64.8409C136.273 64.2491 135.977 63.6573 135.829 63.0655C134.497 61.586 132.87 60.4025 131.094 59.3668C126.064 56.4079 120.294 54.4846 114.524 53.449C105.796 52.1174 97.2147 53.7449 89.5215 57.8874C88.9297 58.1833 88.3379 58.6271 87.7461 58.923C83.6036 63.2134 80.4967 68.5395 78.7213 74.3094C76.798 80.3753 76.0583 86.737 76.6501 93.0987C78.4254 93.9864 80.0528 95.6138 80.7926 97.5371C80.9405 97.833 81.0885 98.2768 81.0885 98.5727H81.2364C81.3844 99.3125 81.6803 99.3124 81.9762 99.4604Z" fill="#853C46"/>
<path d="M62.743 103.603C62.1512 108.781 61.8553 114.107 62.5951 119.285C63.0389 125.647 64.2225 132.157 66.4417 138.075C68.6609 145.916 72.0637 153.313 77.2418 159.823C78.1295 160.858 79.0171 162.042 80.0528 163.077C83.8994 166.924 88.6337 170.327 94.2557 170.179C101.209 170.031 105.204 165.001 105.796 158.491C105.944 156.42 105.944 154.349 105.796 152.277C105.5 147.987 104.464 143.844 102.689 139.998C102.097 137.779 101.357 135.559 100.174 133.636C99.1379 131.861 97.9543 130.233 96.4749 128.902C95.4393 128.014 94.1077 127.126 92.7762 126.535C92.4803 126.239 92.1844 125.943 91.8885 125.795C91.7406 125.795 91.7406 125.647 91.7406 125.647C91.5927 125.499 91.2967 125.203 91.1488 125.055C91.0008 124.907 91.0009 124.907 90.8529 124.759C90.705 124.611 90.4091 124.315 90.2611 124.168C90.1132 124.02 90.1132 124.02 89.9652 123.872C89.6693 123.576 89.3734 123.28 89.2255 122.984C88.4858 121.948 87.746 120.765 87.1542 119.581C86.2666 117.954 85.5268 116.03 84.7871 114.255C84.6391 113.811 84.4912 113.515 84.3433 113.072C84.1953 112.48 84.0473 111.888 83.8994 111.296C83.7515 110.704 83.6035 110.113 83.4556 109.521C83.1597 109.817 82.8638 109.965 82.4199 110.113C81.3843 110.556 80.0528 110.704 78.8692 110.408C78.5733 110.261 78.2774 110.261 78.1295 110.113C77.9815 109.965 77.8336 109.965 77.6857 109.817C76.2062 110.556 74.2829 110.704 72.3596 109.965C67.6253 108.041 64.3704 100.052 67.3294 95.6138C68.6609 93.5426 70.5842 92.6549 72.6554 92.6549C72.3595 86.5891 72.9513 80.5232 74.5788 74.7533C75.1706 72.6821 75.9103 70.6108 76.798 68.6875C75.1706 70.6108 73.6911 72.6821 72.2116 74.7533C69.8445 78.452 67.9212 82.5945 66.4417 86.8849C64.5184 92.359 63.3348 97.9809 62.743 103.603Z" fill="#853C46"/>
<path d="M72.6566 92.655C70.7333 92.655 68.8101 93.5427 67.3306 95.6139C64.3717 100.052 67.6265 108.041 72.3608 109.965C74.2841 110.705 76.2074 110.557 77.6869 109.817C78.1307 109.669 78.4266 109.373 78.7225 109.225C79.1663 109.077 79.6102 108.781 79.9061 108.485C80.054 108.337 80.2019 108.189 80.3499 107.894C80.7937 107.302 81.0896 106.414 81.3855 105.526C81.3855 105.23 81.5334 105.083 81.5334 104.787C81.6814 103.751 81.6814 102.715 81.3855 101.532C81.3855 100.792 81.2376 99.9044 80.9417 99.3126C80.7937 99.0167 80.7937 98.5729 80.6458 98.277C79.9061 96.3537 78.2786 94.8742 76.5033 93.8386C76.0594 87.4769 76.6512 80.9672 78.5745 75.0494C80.4978 69.2794 83.4568 64.1013 87.5993 59.6629C89.5226 57.5916 91.7418 55.8163 94.2569 54.1889C101.21 49.7505 109.791 47.6792 117.928 49.3066C126.065 50.934 132.723 55.9642 135.682 63.6574C135.978 64.2492 136.126 64.841 136.274 65.4328C137.161 68.5397 137.605 71.7945 137.753 75.0494C137.901 80.2275 137.457 85.4056 137.013 90.5838C135.83 91.6194 134.942 92.803 134.202 94.1345C133.759 94.8742 133.463 95.6139 133.167 96.3537C132.279 99.1647 132.427 102.272 134.35 104.195C134.35 104.343 134.498 104.343 134.646 104.491C135.238 105.23 135.83 105.97 136.718 106.562C136.866 106.71 136.865 106.71 137.013 106.858C137.013 107.45 137.013 108.189 137.013 108.781C137.161 118.99 135.682 131.269 125.326 134.82C125.178 134.524 124.882 134.228 124.586 133.932C124.438 133.784 124.29 133.784 124.29 133.636C122.367 132.157 119.408 133.044 118.668 135.56C118.372 136.743 118.668 138.075 119.556 138.962C120 139.406 120.443 139.554 121.035 139.702C121.627 139.998 122.367 139.998 123.106 139.85C123.698 139.702 124.29 139.406 124.734 138.962C130.948 137.483 135.682 132.749 138.345 126.979C141.156 120.765 141.304 113.959 141.008 107.302C149.293 106.266 152.548 90.4358 143.671 88.5125C142.783 88.3646 141.896 88.3646 141.156 88.5125C141.452 83.9262 141.896 79.4878 141.748 74.9014C141.748 73.274 141.6 71.7945 141.304 70.1671C141.008 68.3917 140.712 66.7643 140.268 64.989C137.753 55.8163 131.244 49.0107 122.071 46.0518C104.021 40.4298 84.4924 51.8217 76.9471 68.2438C76.9471 68.3918 76.7992 68.5397 76.7992 68.5397C75.9115 70.463 75.1718 72.5343 74.58 74.6055C72.9526 80.6713 72.2128 86.7371 72.6566 92.655Z" fill="#1A3134"/>
<path d="M143.374 161.302C141.303 166.48 138.492 171.806 134.941 175.357C143.966 175.357 152.991 175.357 162.016 175.357C156.394 169.735 150.18 165.001 143.374 161.302Z" fill="#F5EEE9"/>
<path d="M188.35 230.541C187.907 227.286 187.463 224.032 186.723 220.925C186.279 219.297 185.983 217.522 185.392 215.895C183.764 210.125 181.545 204.355 178.882 199.029C177.994 197.401 177.107 195.774 176.219 194.146C173.408 189.264 170.153 184.678 166.602 180.387C165.123 178.612 163.495 176.985 162.016 175.357C152.991 175.357 143.966 175.357 134.942 175.357C131.243 178.908 126.805 180.387 121.627 177.133C120.739 176.541 119.999 175.949 119.259 175.357C101.062 175.505 82.8645 175.653 64.6671 175.949C63.0396 177.576 61.5602 179.352 60.2287 181.127C56.0861 186.305 52.3875 192.075 49.5765 198.141C48.8368 199.768 48.0971 201.544 47.3573 203.171C45.2861 208.201 43.8066 213.527 42.771 219.001C42.4751 220.629 42.1792 222.404 42.0312 224.032C41.7353 226.843 41.4395 229.802 41.4395 232.76C41.4395 232.908 41.4395 233.056 41.4395 233.204C43.0669 233.352 44.8422 233.352 46.4696 233.352C47.3573 233.352 48.3929 233.352 49.2806 233.352C70.8808 233.5 92.3331 233.056 113.933 232.317C135.534 232.613 156.986 232.613 178.586 232.021C180.213 232.021 181.989 232.021 183.616 231.873C185.244 231.725 186.723 231.725 188.35 231.429C188.35 230.985 188.35 230.837 188.35 230.541Z" fill="#FF664F"/>
<path d="M111.269 151.834C109.493 151.982 107.718 152.13 105.795 152.278C105.943 154.349 105.943 156.42 105.795 158.491C105.203 165.149 101.208 170.031 94.2549 170.179C88.7808 170.327 83.8986 167.072 80.052 163.078C74.2821 166.628 69.1039 171.067 64.5176 175.949C82.715 175.653 100.913 175.505 119.11 175.357C112.748 169.735 110.233 160.415 111.269 151.834Z" fill="#F5EEE9"/>
<path d="M27.9759 304.071C28.1238 304.367 28.4197 304.663 28.5677 304.958C34.6335 306.142 42.1788 305.994 48.6884 305.994C72.9517 305.994 97.2149 305.846 121.478 305.55C145.741 305.698 170.005 305.698 194.268 305.402C202.997 305.254 213.501 305.402 219.863 302.443C226.372 299.336 225.337 294.75 225.485 291.051C225.633 285.725 225.633 280.547 225.781 275.221C225.781 275.073 225.781 274.925 225.781 274.777C225.781 274.629 225.781 274.481 225.781 274.333C225.633 269.007 225.337 263.829 225.189 258.503C225.041 254.657 225.929 250.07 219.271 247.111C212.909 244.152 202.257 244.3 193.676 244.3C169.413 244.152 145.15 244.152 120.886 244.448C96.6231 244.152 72.3599 244.152 48.0966 244.3C39.3678 244.3 28.8635 244.3 22.5018 247.111C15.8442 250.07 16.7319 254.657 16.584 258.503C16.436 263.977 16.1401 269.599 15.9922 275.073C15.9922 275.073 15.9922 275.073 15.9922 275.221C16.2881 279.216 16.436 283.21 16.7319 287.057C16.7319 287.205 16.8799 287.353 16.8799 287.353C19.9868 293.419 23.8334 298.745 27.9759 304.071ZM160.536 278.032C172.964 277.736 185.391 277.292 197.671 276.997C200.926 276.849 200.926 285.282 197.671 285.282C185.243 285.577 172.816 286.021 160.536 286.317C157.133 286.465 157.281 278.18 160.536 278.032ZM47.5048 262.942L139.084 261.314C142.339 261.314 142.339 269.747 139.084 269.747L47.5048 271.375C44.102 271.375 44.25 262.942 47.5048 262.942ZM47.3569 280.399L138.936 278.772C142.191 278.772 142.191 287.205 138.936 287.205L47.3569 288.832C44.1021 288.832 44.1021 280.399 47.3569 280.399Z" fill="#7BA2C9"/>
<path d="M47.3571 288.832L138.936 287.205C142.191 287.205 142.191 278.772 138.936 278.772L47.3571 280.399C44.1023 280.399 44.1023 288.832 47.3571 288.832Z" fill="#F5EEE9"/>
<path d="M47.5047 271.375L139.084 269.747C142.339 269.747 142.339 261.314 139.084 261.314L47.5047 262.942C44.2499 262.942 44.1019 271.375 47.5047 271.375Z" fill="#F5EEE9"/>
<path d="M160.534 286.317C172.962 286.021 185.389 285.578 197.669 285.282C200.923 285.134 200.923 276.849 197.669 276.997C185.241 277.292 172.814 277.736 160.534 278.032C157.279 278.18 157.131 286.465 160.534 286.317Z" fill="#F5EEE9"/>
</svg>
