<svg width="240" height="258" viewBox="0 0 240 258" fill="none" xmlns="http://www.w3.org/2000/svg">
<path d="M41.4805 20.5054C25.5068 61.8536 12.3121 104.162 2.48364 147.166C0.516643 155.783 -1.31174 164.83 1.28233 173.301C3.59916 180.865 9.19654 187.117 14.9655 192.819C47.2429 224.743 89.8766 247.314 135.685 256.713C142.273 258.064 149.56 259.057 155.415 255.918C160.233 253.335 163.052 248.48 165.626 243.87C190.464 199.403 215.402 154.703 232.471 107.116C237.976 91.7703 242.669 75.2125 238.247 59.562C232.042 37.6329 209.844 23.3997 188.352 13.0147C167.811 3.08662 153.072 10.5575 131.045 4.0271C123.798 1.88121 108.187 -0.377276 100.603 0.0532275C76.2792 1.45071 72.7281 5.94119 49.5399 12.9882C49.5333 13.0014 43.8105 14.485 41.4805 20.5054Z" fill="#FAE6C8"/>
<path d="M122.866 148.484C122.82 148.08 122.767 147.682 122.714 147.278C122.549 146.073 122.338 144.874 122.101 143.689C121.935 142.894 121.757 142.106 121.566 141.318C121.368 140.529 121.157 139.748 120.932 138.973C120.708 138.191 120.464 137.423 120.206 136.648C119.302 133.953 118.213 131.323 116.959 128.767C116.602 128.038 116.232 127.316 115.843 126.594C115.077 125.164 114.259 123.76 113.388 122.382C111.744 119.779 109.942 117.262 107.975 114.891C106.081 112.606 103.909 110.434 101.249 109.076C96.7341 106.765 90.3116 107.255 87.7902 112.235C87.5327 112.739 87.3281 113.262 87.1499 113.792C86.9189 114.501 86.7473 115.229 86.6152 115.971C86.5822 116.156 86.5493 116.342 86.5229 116.527C86.4106 117.269 86.3248 118.024 86.2522 118.772C86.1796 119.521 86.1136 120.269 86.0344 121.004C85.6449 124.588 85.1697 128.164 84.6219 131.727C84.0806 135.257 83.4601 138.781 82.7671 142.285C82.1466 145.431 81.6647 148.762 80.5096 151.769C80.008 153.08 79.2819 154.259 78.2258 155.186C77.6581 155.683 78.1334 156.425 78.7208 156.498C79.3479 156.935 79.942 157.399 80.5096 157.902C80.9321 158.279 81.3347 158.67 81.7241 159.074C81.8562 159.207 81.9816 159.346 82.107 159.485C82.4898 159.902 82.8529 160.333 83.2027 160.776C83.3215 160.922 83.4337 161.074 83.5525 161.22C85.3941 163.624 86.9057 166.34 88.4106 169.055C88.503 169.227 88.6021 169.393 88.6945 169.565C88.9783 170.075 89.2621 170.579 89.546 171.082C89.9288 171.751 90.3182 172.42 90.7143 173.076C91.0113 173.566 91.3149 174.049 91.6252 174.526C94.2192 178.5 97.3612 181.891 102.305 183.454C105.031 184.315 107.955 184.249 110.602 183.143C113.295 182.017 115.506 180.03 117.19 177.665C118.992 175.142 120.173 172.201 121.084 169.254C122.067 166.062 122.695 162.77 123.005 159.445C123.196 157.405 123.262 155.365 123.209 153.339C123.17 151.716 123.058 150.093 122.866 148.484Z" fill="#FAE6C8"/>
<path d="M130.74 231.029C130.839 231.022 130.938 231.009 131.044 230.995C131.011 230.982 130.971 230.969 130.932 230.969C130.859 230.969 130.793 230.989 130.74 231.029Z" fill="white"/>
<path d="M125.466 229.333C125.499 229.598 125.625 229.743 125.803 229.75C125.994 229.75 126.173 229.617 126.232 229.399C126.258 229.313 126.252 229.22 126.258 229.134C125.988 229.134 125.724 229.134 125.453 229.134C125.46 229.2 125.46 229.266 125.466 229.333Z" fill="white"/>
<path d="M134.2 229.531C134.457 229.611 134.596 229.505 134.721 229.134C134.451 229.134 134.187 229.134 133.916 229.134C133.949 229.313 134.008 229.472 134.2 229.531Z" fill="white"/>
<path d="M139.619 229.803C139.731 229.783 139.837 229.763 139.949 229.743C139.91 229.717 139.87 229.697 139.817 229.697C139.725 229.697 139.646 229.743 139.619 229.803Z" fill="white"/>
<path d="M65.2822 117.21C65.5331 115.315 65.8763 113.441 66.3383 111.6C65.8829 113.441 65.5397 115.315 65.2822 117.21Z" fill="white"/>
<path d="M75.4404 96.4526C76.4965 95.6247 77.6253 94.9293 78.8002 94.3531C77.6253 94.9293 76.4965 95.6247 75.4404 96.4526Z" fill="white"/>
<path d="M71.2166 158.26C71.111 158.412 71.0054 158.564 70.9064 158.723C70.5565 159.293 70.2859 159.895 70.0879 160.505C70.2859 159.889 70.5565 159.293 70.9064 158.723C71.0054 158.564 71.111 158.412 71.2166 158.26Z" fill="white"/>
<path d="M155.539 49.0772C155.421 48.6533 155.236 48.2427 155.031 47.8453C155.236 48.236 155.421 48.6467 155.539 49.0772Z" fill="white"/>
<path d="M119.216 230.419C118.979 230.425 118.834 230.611 118.853 230.882C118.873 231.121 119.018 231.273 119.223 231.28C119.461 231.286 119.659 231.081 119.639 230.849C119.619 230.591 119.441 230.405 119.216 230.419Z" fill="white"/>
<path d="M169.691 165.565C169.81 151.398 169.843 137.231 169.79 123.064C169.79 122.766 169.916 121.932 169.731 121.806C169.427 111.931 168.662 102.678 167.533 92.8562C167.394 91.6376 167.242 90.4189 167.084 89.2069C166.523 84.9482 165.837 80.7094 164.985 76.5037C164.741 75.3049 164.483 74.0995 164.213 72.9074C163.804 71.1125 163.368 69.3242 162.893 67.5493C162.576 66.3637 162.246 65.1848 161.896 64.0059C160.51 59.3299 158.919 54.6805 156.886 50.243C155.929 48.1501 154.866 45.991 153.427 44.1762C152.952 43.5802 152.365 43.0238 151.704 42.6066C151.592 42.5403 151.48 42.4741 151.368 42.4079C151.137 42.282 150.906 42.176 150.662 42.0899C150.061 41.878 149.421 41.7853 148.78 41.878C148.523 41.9177 148.266 41.9774 148.008 42.0767C147.586 42.2357 147.229 42.4608 146.919 42.739C146.767 42.8781 146.629 43.0238 146.503 43.1894C146.378 43.3483 146.266 43.5205 146.16 43.6994C146.107 43.7855 146.061 43.8782 146.015 43.9709C145.698 44.62 145.52 45.3618 145.44 46.0969C145.374 46.7129 145.361 47.3355 145.388 47.9647C145.414 48.5939 145.473 49.2231 145.546 49.8523C145.665 50.8325 145.823 51.7995 145.942 52.7532C146.193 54.707 146.47 56.6542 146.747 58.608C146.932 59.9062 147.117 61.2043 147.302 62.509C147.394 63.1581 147.48 63.8072 147.566 64.4629C147.737 65.7676 147.896 67.0658 148.041 68.3705C148.213 69.9137 148.351 71.4635 148.457 73.0133C148.582 74.8744 148.655 76.7422 148.648 78.6032C148.648 79.2258 148.635 79.8484 148.615 80.471C148.596 81.0935 148.569 81.7161 148.53 82.3321C148.51 82.6434 148.49 82.9546 148.464 83.2659C148.305 85.3323 148.021 87.3855 147.592 89.4188C146.866 91.0878 145.823 92.9622 144.015 93.4589C143.949 93.4788 143.889 93.492 143.83 93.5053C143.645 93.545 143.467 93.5583 143.295 93.5583C143.236 93.5583 143.183 93.5516 143.124 93.5516C142.959 93.5384 142.794 93.5053 142.642 93.4589C142.589 93.4457 142.536 93.4258 142.49 93.4059C142.391 93.3662 142.292 93.3198 142.193 93.2735C142.147 93.247 142.101 93.2205 142.048 93.194C141.863 93.0814 141.685 92.9423 141.513 92.79C141.473 92.7502 141.427 92.7105 141.388 92.6708C141.183 92.4721 140.992 92.2469 140.813 92.0085C140.635 91.77 140.47 91.525 140.312 91.2733C140.252 91.1739 140.186 91.0746 140.134 90.9752C140.048 90.8229 139.962 90.6772 139.883 90.5315C139.355 89.0016 138.873 87.4584 138.417 85.9086C138.233 85.2794 138.054 84.6502 137.883 84.0143C137.48 82.5705 137.097 81.12 136.721 79.6696C136.589 79.1463 136.457 78.6297 136.318 78.1065C135.955 76.6759 135.592 75.2321 135.229 73.7882C134.411 70.5429 133.572 67.2777 132.615 64.0522C132.404 63.3369 132.186 62.6216 131.962 61.913C131.064 59.065 130.054 56.2634 128.866 53.5413C128.424 52.5214 127.949 51.508 127.454 50.5146C127.124 49.8523 126.774 49.1899 126.417 48.5409C125.698 47.2361 124.926 45.9645 124.087 44.7193C121.242 40.5004 117.718 36.712 113.493 33.8574C111.394 32.4401 109.117 31.2611 106.727 30.4266C104.16 29.5259 101.222 29.1152 98.734 30.473C96.701 31.5857 95.3809 33.7316 95.7505 36.0828C95.7967 36.3742 95.8694 36.659 95.9552 36.9372C96.0476 37.2153 96.1532 37.4803 96.2852 37.7452C96.4766 38.1359 96.7076 38.5135 96.9651 38.8711C97.2225 39.2288 97.5129 39.5732 97.8165 39.8977C98.4238 40.5534 99.0971 41.1428 99.7571 41.6793C101.77 43.3285 103.81 44.9114 105.704 46.7063C107.579 48.4879 109.355 50.3821 111.005 52.3757C114.351 56.4025 117.203 60.8466 119.5 65.5557C120.661 67.9334 121.671 70.3839 122.529 72.8941C122.952 74.1194 123.335 75.3579 123.678 76.6097C124.061 77.9939 124.543 79.4643 124.582 80.9081C124.615 82.0605 124.094 83.8289 122.648 83.8156C121.599 83.809 120.992 82.6698 120.609 81.8353C120.1 80.7425 119.751 79.5768 119.275 78.4708C118.906 77.6098 118.503 76.7686 118.074 75.9408C117.929 75.6626 117.784 75.391 117.632 75.1195C115.203 70.7416 111.909 66.8339 108.041 63.6615C104.833 61.0321 101.249 58.9392 97.4535 57.4092C96.8198 57.1509 96.1796 56.9125 95.5327 56.6873C94.2456 56.2369 92.932 55.8462 91.6053 55.5216C88.2852 54.707 84.866 54.2831 81.4337 54.2566C81.0904 54.2566 80.7472 54.2566 80.4039 54.2633C79.3742 54.2765 78.3445 54.3295 77.3148 54.4156C76.8198 54.4553 76.3115 54.5083 75.8033 54.5613C75.6317 54.5812 75.46 54.601 75.295 54.6209C74.7802 54.6805 74.2653 54.7467 73.7439 54.8262C73.0508 54.9322 72.3577 55.0514 71.6647 55.1905C70.9716 55.3296 70.2851 55.4952 69.6052 55.6806C69.262 55.7733 68.9254 55.8727 68.5953 55.9786C68.4303 56.0316 68.2587 56.0846 68.0937 56.1442C67.427 56.3694 66.7802 56.6277 66.1465 56.9191C65.8297 57.0648 65.5194 57.2172 65.2158 57.3761C64.7538 57.6146 64.3115 57.8795 63.8759 58.1577C63.1564 58.6279 62.4765 59.1577 61.8494 59.7472C61.5194 60.0585 61.2092 60.3897 60.9187 60.7407C60.7273 60.9725 60.5425 61.2109 60.3709 61.456C60.0211 61.9461 59.7174 62.4693 59.4534 63.0058C59.1894 63.5423 58.9781 64.0986 58.8131 64.6616C58.7339 64.9464 58.6613 65.2312 58.6019 65.5159C58.5161 65.9464 58.4633 66.377 58.4435 66.8141C58.4303 67.1055 58.4303 67.3903 58.4435 67.6817C58.5359 69.4103 59.1696 71.0992 60.5029 72.5365C62.3049 74.4837 64.8462 74.9473 67.361 74.4042C68.8066 74.0929 70.1729 73.5101 71.5656 73.0332C72.8726 72.5828 74.2059 72.2186 75.5591 71.9338C80.8528 70.8144 86.4436 71.0131 91.6251 72.6159C101.401 75.6427 109.229 84.2859 110.424 94.6246C110.562 95.8101 110.609 97.0023 110.562 98.1945C110.556 98.413 110.549 98.6382 110.536 98.87C110.529 99.0223 110.516 99.1747 110.49 99.3204C110.457 99.5456 110.411 99.7641 110.331 99.9761C110.18 100.387 109.625 101.062 109.17 100.592C108.939 100.354 108.668 100.314 108.43 100.393C103.823 96.6049 98.4502 93.545 92.5096 92.578C91.0179 92.333 89.5063 92.2204 88.0079 92.2469C87.6317 92.2535 87.2555 92.2668 86.8858 92.2933C86.5096 92.3197 86.14 92.3529 85.7637 92.3926C85.3941 92.4323 85.0178 92.4853 84.6548 92.5449C83.7307 92.6973 82.8198 92.9026 81.9287 93.1675C81.5723 93.2735 81.2158 93.3927 80.866 93.5185C80.6878 93.5781 80.5162 93.6444 80.3445 93.7172C79.9947 93.8497 79.6515 93.9954 79.3148 94.1544C79.1432 94.2338 78.9782 94.3133 78.8066 94.3928C77.6317 94.969 76.503 95.6644 75.4468 96.4923C74.4699 97.254 73.5723 98.1017 72.7472 99.0091C72.4699 99.3138 72.2059 99.625 71.9485 99.9363C71.5062 100.479 71.0904 101.042 70.6944 101.625C70.5623 101.817 70.4369 102.016 70.3049 102.208C70.0541 102.599 69.8099 103.003 69.5788 103.407C69.229 104.016 68.9056 104.639 68.6019 105.275C67.6316 107.308 66.8858 109.46 66.3445 111.633C65.8891 113.474 65.5458 115.348 65.2884 117.243C65.2554 117.514 65.2158 117.786 65.1828 118.057C65.0772 118.925 64.9914 119.799 64.9254 120.667C64.8594 121.541 64.8066 122.415 64.767 123.289C64.6349 126.356 64.6679 129.429 64.7868 132.449C64.9254 136.019 65.2554 139.582 65.7438 143.126C66.1861 146.298 66.5821 149.683 68.1597 152.531C69.1828 154.372 70.866 155.981 72.8726 156.657C72.4831 156.928 72.1201 157.24 71.7901 157.597C71.7109 157.683 71.6251 157.776 71.5458 157.869C71.427 158.008 71.3148 158.154 71.2092 158.306C71.1036 158.458 70.998 158.611 70.899 158.77C70.5491 159.339 70.2785 159.942 70.0805 160.551C70.0145 160.757 69.9551 160.962 69.9023 161.174C69.8363 161.452 69.7769 161.73 69.7307 162.015C69.6977 162.2 69.6779 162.392 69.6515 162.585C69.6119 162.962 69.5854 163.346 69.5788 163.737C69.5458 165.088 69.7043 166.452 69.8957 167.777C70.7274 173.367 71.6317 179.056 73.3412 184.467C73.7373 185.719 74.1729 186.951 74.6614 188.163C75.196 189.488 75.7967 190.792 76.4633 192.057C76.965 193.005 77.5128 193.938 78.0937 194.839C78.4831 195.442 78.8924 196.025 79.3214 196.601C80.1795 197.747 81.1102 198.833 82.1267 199.833C82.8858 200.588 83.6977 201.297 84.5492 201.959C89.5393 205.807 95.7373 207.171 101.916 207.509C104.721 207.661 107.533 207.622 110.345 207.549C109.929 215.371 109.605 223.193 109.368 231.015C112.965 231.372 116.609 231.558 120.298 231.558C123.81 231.558 127.289 231.392 130.714 231.068C130.767 231.035 130.833 231.008 130.906 231.008C130.945 231.008 130.985 231.021 131.018 231.035C133.916 230.75 136.774 230.352 139.599 229.849C139.625 229.789 139.704 229.743 139.797 229.743C139.85 229.743 139.889 229.763 139.929 229.789C150.101 227.942 159.79 224.69 168.78 220.232C169.071 208.304 169.295 196.369 169.46 184.441C169.566 178.122 169.639 171.844 169.691 165.565ZM119.229 231.273C119.025 231.273 118.873 231.114 118.86 230.876C118.84 230.597 118.978 230.419 119.223 230.412C119.44 230.405 119.625 230.591 119.645 230.842C119.665 231.081 119.467 231.28 119.229 231.273ZM123.005 159.445C122.695 162.77 122.067 166.062 121.084 169.254C120.173 172.208 118.992 175.142 117.19 177.665C115.5 180.03 113.295 182.017 110.602 183.143C107.955 184.249 105.031 184.315 102.305 183.454C97.3611 181.891 94.2192 178.5 91.6251 174.526C91.3149 174.049 91.0113 173.566 90.7142 173.076C90.3182 172.42 89.9287 171.758 89.5459 171.082C89.2621 170.579 88.9782 170.069 88.6944 169.565C88.602 169.393 88.503 169.227 88.4106 169.055C86.899 166.346 85.3875 163.624 83.5525 161.22C83.4403 161.068 83.3215 160.922 83.2026 160.776C82.8528 160.333 82.4832 159.902 82.1069 159.485C81.9815 159.346 81.8495 159.207 81.7241 159.074C81.3346 158.67 80.932 158.273 80.5096 157.902C79.9485 157.405 79.3544 156.935 78.7208 156.498C78.1333 156.425 77.6647 155.683 78.2257 155.186C79.2818 154.259 80.0079 153.074 80.5096 151.769C81.6647 148.762 82.1465 145.431 82.767 142.285C83.4601 138.781 84.0805 135.257 84.6218 131.727C85.1696 128.164 85.6383 124.588 86.0343 121.004C86.1135 120.269 86.1796 119.521 86.2522 118.773C86.3248 118.024 86.4106 117.269 86.5228 116.527C86.5492 116.342 86.5822 116.156 86.6152 115.971C86.7472 115.229 86.9188 114.501 87.1498 113.792C87.3281 113.262 87.5327 112.739 87.7901 112.235C90.305 107.248 96.7274 106.758 101.249 109.076C103.916 110.441 106.081 112.613 107.975 114.891C109.942 117.262 111.744 119.779 113.388 122.382C114.252 123.753 115.071 125.157 115.843 126.594C116.226 127.31 116.595 128.032 116.959 128.767C118.213 131.323 119.302 133.953 120.206 136.648C120.463 137.417 120.708 138.192 120.932 138.973C121.157 139.755 121.368 140.536 121.566 141.318C121.764 142.106 121.942 142.894 122.1 143.689C122.345 144.881 122.549 146.08 122.714 147.278C122.767 147.682 122.82 148.08 122.866 148.484C123.051 150.093 123.17 151.716 123.209 153.339C123.262 155.372 123.196 157.405 123.005 159.445ZM126.232 229.399C126.173 229.611 125.995 229.75 125.803 229.75C125.625 229.75 125.5 229.597 125.467 229.332C125.46 229.266 125.46 229.2 125.454 229.134C125.724 229.134 125.988 229.134 126.259 229.134C126.252 229.22 126.259 229.313 126.232 229.399ZM134.199 229.531C134.008 229.471 133.949 229.312 133.916 229.134C134.186 229.134 134.45 229.134 134.721 229.134C134.596 229.505 134.457 229.611 134.199 229.531ZM155.031 47.8388C155.236 48.2362 155.421 48.6468 155.539 49.0707C155.421 48.6468 155.236 48.2362 155.031 47.8388Z" fill="#ED700D"/>
<path d="M229.804 117.739C229.546 110.269 228.55 102.983 226.88 95.9626C224.484 85.9087 220.715 76.3979 215.777 67.6289C215.249 66.695 214.715 65.7612 214.16 64.8472C214.048 64.6551 213.929 64.4696 213.817 64.2842C213.751 64.1782 213.692 64.0789 213.626 63.9729C209.896 57.9127 205.606 52.2367 200.814 47.0243C189.856 35.1226 176.312 25.6581 161.071 19.5251C160.972 19.4854 160.866 19.439 160.767 19.3993C160.523 19.2999 160.272 19.2072 160.028 19.1079C156.417 17.6971 152.714 16.4785 148.926 15.4585C148.714 15.3989 148.51 15.3459 148.299 15.2863C139.368 12.9285 129.995 11.6635 120.332 11.6635C106.8 11.6635 93.8496 14.1339 81.8826 18.631C72.0541 22.3267 62.899 27.4 54.6416 33.6191C54.5689 33.6854 54.4963 33.7383 54.4171 33.7913C53.7769 34.2748 53.1432 34.7649 52.5161 35.2617C52.2059 35.5067 51.8891 35.7584 51.5788 36.0101C50.2191 37.1161 48.8792 38.2487 47.5722 39.4144C46.6811 40.2091 45.8098 41.0105 44.9452 41.8318C43.5854 43.1233 42.2587 44.4479 40.9715 45.8123C40.4765 46.3355 39.988 46.8654 39.4996 47.3952C37.6118 49.4683 35.7966 51.6075 34.0738 53.8197C33.6448 54.3694 33.2224 54.9191 32.8065 55.4754C32.7405 55.5682 32.6745 55.6543 32.6019 55.747C32.1266 56.3894 31.6514 57.0319 31.1893 57.6809C31.0705 57.8465 30.9451 58.0121 30.8263 58.1843C30.4039 58.7804 29.988 59.3831 29.5788 59.9924C28.7933 61.1515 28.0342 62.3304 27.2949 63.5159C25.7834 65.9466 24.3642 68.4435 23.0441 70.9934C21.0639 74.8216 19.3015 78.7822 17.7702 82.8621C17.5325 83.5045 17.2949 84.1469 17.0639 84.796C16.8857 85.306 16.7075 85.816 16.5358 86.326C16.3378 86.9154 16.1398 87.5049 15.955 88.101C15.2487 90.3197 14.6084 92.5716 14.0408 94.8566C13.6777 96.3203 13.3411 97.7906 13.0375 99.2742C12.6216 101.288 12.2652 103.328 11.9616 105.381C11.7569 106.745 11.5853 108.123 11.4335 109.507C11.4203 109.639 11.4071 109.765 11.3939 109.898C10.9913 113.739 10.7734 117.64 10.7734 121.587C10.7734 134.41 12.9715 146.722 16.9913 158.167C18.1398 161.439 19.4401 164.644 20.8857 167.764C21.5722 169.254 22.2982 170.718 23.0441 172.168C39.6976 204.35 71.7373 227.226 109.394 230.968C109.632 223.14 109.955 215.318 110.371 207.503C107.559 207.569 104.747 207.615 101.942 207.463C95.7704 207.125 89.5723 205.761 84.5756 201.913C83.7241 201.257 82.9123 200.542 82.1532 199.787C81.1367 198.78 80.206 197.694 79.3479 196.555C78.9189 195.985 78.5096 195.396 78.1202 194.793C77.5327 193.892 76.9914 192.965 76.4898 192.011C75.8165 190.746 75.2159 189.441 74.6878 188.117C74.1994 186.905 73.7637 185.666 73.3677 184.421C71.6581 179.01 70.7538 173.321 69.9221 167.731C69.7241 166.406 69.5723 165.042 69.6053 163.691C69.6119 163.307 69.6383 162.922 69.6779 162.538C69.6977 162.346 69.7241 162.161 69.7571 161.969C69.8033 161.684 69.8561 161.406 69.9287 161.128C69.9815 160.922 70.0409 160.71 70.107 160.505C70.305 159.889 70.5756 159.293 70.9254 158.723C71.0244 158.564 71.1235 158.412 71.2357 158.26C71.3413 158.107 71.4535 157.968 71.5723 157.823C71.6515 157.73 71.7307 157.637 71.8165 157.551C72.1466 157.2 72.5096 156.882 72.899 156.611C70.8924 155.935 69.2093 154.326 68.1862 152.484C66.6086 149.643 66.2059 146.252 65.7703 143.08C65.2819 139.536 64.9518 135.98 64.8132 132.403C64.6944 129.383 64.6548 126.31 64.7934 123.243C64.833 122.369 64.8858 121.495 64.9518 120.621C65.0178 119.746 65.1036 118.879 65.2092 118.011C65.2422 117.739 65.2752 117.468 65.3149 117.196C65.5657 115.302 65.9089 113.428 66.371 111.587C66.9122 109.414 67.6581 107.262 68.6284 105.228C68.932 104.593 69.2555 103.97 69.6053 103.361C69.8363 102.957 70.0805 102.553 70.3314 102.162C70.4568 101.963 70.5888 101.771 70.7208 101.579C71.1169 100.996 71.5327 100.44 71.9749 99.8901C72.2324 99.5722 72.4964 99.2609 72.7736 98.9629C73.5987 98.0555 74.4964 97.2078 75.4733 96.4461C76.5294 95.6182 77.6581 94.9228 78.8331 94.3466C78.9981 94.2671 79.1697 94.1876 79.3413 94.1081C79.6845 93.9558 80.0278 93.8101 80.371 93.671C80.5426 93.6048 80.7208 93.5386 80.8925 93.4723C81.2423 93.3465 81.5987 93.2339 81.9552 93.1213C82.8463 92.8564 83.7571 92.651 84.6812 92.4987C85.0509 92.4391 85.4205 92.3861 85.7902 92.3464C86.1598 92.3066 86.536 92.2735 86.9123 92.247C87.2885 92.2205 87.6648 92.2073 88.0344 92.2007C89.5394 92.1742 91.0443 92.2868 92.536 92.5318C98.4767 93.4988 103.85 96.5587 108.457 100.347C108.695 100.268 108.972 100.314 109.196 100.546C109.652 101.016 110.199 100.34 110.358 99.9299C110.437 99.7245 110.483 99.4994 110.516 99.2742C110.536 99.1218 110.549 98.9695 110.562 98.8238C110.576 98.5986 110.582 98.3668 110.589 98.1482C110.635 96.9561 110.582 95.7639 110.45 94.5784C109.256 84.2397 101.427 75.5899 91.6516 72.5697C86.4766 70.9669 80.8859 70.7749 75.5855 71.8876C74.2324 72.1723 72.899 72.5432 71.5921 72.987C70.1994 73.4638 68.833 74.0467 67.3875 74.358C64.866 74.9011 62.3313 74.4374 60.5294 72.4902C59.2026 71.053 58.5624 69.3641 58.47 67.6355C58.4567 67.3507 58.4567 67.0593 58.47 66.7679C58.4898 66.3374 58.5426 65.9002 58.6284 65.4697C58.6878 65.1849 58.7538 64.9001 58.8396 64.6153C59.0046 64.0524 59.2224 63.496 59.4799 62.9596C59.7439 62.4231 60.0475 61.9065 60.3974 61.4098C60.569 61.1647 60.7538 60.9263 60.9452 60.6945C61.2356 60.3434 61.5459 60.0123 61.8759 59.701C62.503 59.1049 63.1828 58.5817 63.9023 58.1114C64.3313 57.8266 64.7802 57.5683 65.2422 57.3299C65.5459 57.171 65.8627 57.0186 66.1729 56.8729C66.8066 56.5815 67.4535 56.3298 68.1201 56.098C68.2852 56.0384 68.4502 55.9854 68.6218 55.9324C68.9584 55.8265 69.2951 55.7271 69.6317 55.6344C70.3116 55.4489 70.998 55.2834 71.6911 55.1443C72.3842 55.0052 73.0773 54.8794 73.7703 54.78C74.2918 54.7005 74.8066 54.6343 75.3215 54.5747C75.4931 54.5548 75.6647 54.535 75.8297 54.5151C76.338 54.4621 76.8462 54.4091 77.3413 54.3694C78.371 54.2833 79.4007 54.2303 80.4304 54.217C80.7736 54.2104 81.1169 54.2104 81.4601 54.2104C84.8925 54.2369 88.3116 54.6608 91.6318 55.4754C92.9585 55.8 94.272 56.1907 95.5592 56.6411C96.206 56.8663 96.8463 57.1047 97.48 57.363C101.282 58.8996 104.86 60.9859 108.067 63.6153C111.935 66.7877 115.229 70.6954 117.658 75.0733C117.81 75.3448 117.955 75.6164 118.1 75.8945C118.53 76.7224 118.932 77.5636 119.302 78.4246C119.777 79.5306 120.133 80.6963 120.635 81.7891C121.018 82.617 121.625 83.7562 122.675 83.7694C124.12 83.7827 124.642 82.0143 124.609 80.8619C124.563 79.418 124.081 77.9477 123.704 76.5635C123.361 75.3117 122.978 74.0732 122.556 72.8479C121.698 70.3377 120.688 67.8872 119.526 65.5095C117.229 60.8004 114.378 56.3563 111.031 52.3295C109.374 50.3359 107.605 48.4417 105.731 46.6601C103.836 44.8652 101.797 43.2823 99.7836 41.6331C99.1301 41.0966 98.4503 40.5072 97.843 39.8515C97.5394 39.527 97.2489 39.1825 96.9915 38.8249C96.7341 38.4672 96.5031 38.0897 96.3116 37.699C96.1862 37.4407 96.074 37.1691 95.9816 36.8909C95.8892 36.6128 95.8232 36.328 95.777 36.0366C95.4073 33.6854 96.7275 31.5395 98.7605 30.4268C101.242 29.069 104.186 29.4797 106.754 30.3804C109.143 31.2215 111.421 32.3938 113.52 33.8112C117.744 36.6658 121.269 40.4542 124.114 44.6731C124.952 45.9183 125.724 47.1899 126.444 48.4947C126.8 49.1437 127.15 49.806 127.48 50.4684C127.982 51.4618 128.45 52.4752 128.893 53.4951C130.081 56.2172 131.091 59.0254 131.988 61.8668C132.213 62.5754 132.431 63.2907 132.642 64.006C133.599 67.2315 134.431 70.4967 135.256 73.742C135.619 75.1859 135.982 76.6231 136.345 78.0603C136.477 78.5769 136.609 79.1001 136.747 79.6234C137.124 81.0738 137.506 82.5243 137.909 83.9681C138.087 84.5973 138.266 85.2331 138.444 85.8623C138.899 87.4188 139.381 88.962 139.909 90.4853C139.988 90.631 140.074 90.7833 140.16 90.929C140.219 91.0284 140.279 91.1277 140.338 91.2271C140.497 91.4788 140.662 91.7238 140.84 91.9622C141.018 92.2007 141.209 92.4192 141.414 92.6246C141.454 92.6643 141.5 92.704 141.54 92.7438C141.711 92.8961 141.883 93.0352 142.074 93.1478C142.12 93.1743 142.167 93.2008 142.219 93.2273C142.318 93.2803 142.411 93.3266 142.516 93.3597C142.569 93.3796 142.615 93.3995 142.668 93.4127C142.827 93.4591 142.985 93.4922 143.15 93.5054C143.203 93.5121 143.262 93.5121 143.322 93.5121C143.493 93.5121 143.672 93.4988 143.856 93.4591C143.916 93.4458 143.982 93.4326 144.041 93.4127C145.843 92.916 146.893 91.035 147.619 89.3726C148.048 87.3459 148.332 85.2928 148.49 83.2197C148.516 82.9084 148.536 82.5971 148.556 82.2859C148.596 81.6633 148.622 81.0407 148.642 80.4248C148.662 79.8022 148.668 79.1796 148.675 78.557C148.681 76.6893 148.609 74.8282 148.483 72.9671C148.378 71.4173 148.233 69.8675 148.068 68.3243C147.922 67.0196 147.764 65.7148 147.592 64.4167C147.507 63.7676 147.421 63.1185 147.328 62.4628C147.15 61.1647 146.965 59.8599 146.774 58.5618C146.497 56.6146 146.219 54.6608 145.969 52.707C145.85 51.7599 145.691 50.7863 145.573 49.806C145.493 49.1768 145.434 48.5476 145.414 47.9185C145.388 47.2893 145.401 46.6667 145.467 46.0507C145.546 45.3156 145.724 44.5738 146.041 43.9247C146.087 43.832 146.134 43.7393 146.186 43.6532C146.285 43.4743 146.404 43.3021 146.53 43.1432C146.655 42.9842 146.794 42.8319 146.945 42.6928C147.249 42.4146 147.612 42.1894 148.035 42.0305C148.292 41.9311 148.549 41.8649 148.807 41.8318C149.454 41.7391 150.087 41.8252 150.688 42.0437C150.926 42.1298 151.163 42.2358 151.394 42.3616C151.507 42.4213 151.619 42.4875 151.731 42.5603C152.391 42.9776 152.985 43.5339 153.454 44.13C154.886 45.9448 155.949 48.0973 156.912 50.1968C158.939 54.6343 160.536 59.2904 161.922 63.9597C162.272 65.1386 162.602 66.3175 162.919 67.503C163.394 69.278 163.83 71.0663 164.239 72.8611C164.51 74.0599 164.767 75.2587 165.012 76.4575C165.863 80.6632 166.549 84.9086 167.111 89.1607C167.269 90.3793 167.421 91.5913 167.559 92.81C168.688 102.632 169.454 111.878 169.757 121.76C169.949 121.886 169.817 122.727 169.817 123.018C169.87 137.185 169.837 151.352 169.718 165.519C169.665 171.797 169.592 178.076 169.507 184.355C169.342 196.29 169.111 208.218 168.827 220.146C185.289 211.98 199.414 199.787 209.916 184.852C210.088 184.607 210.259 184.355 210.431 184.103C210.781 183.593 211.13 183.083 211.474 182.567C211.672 182.269 211.876 181.964 212.074 181.666C212.451 181.096 212.814 180.513 213.177 179.937C213.619 179.229 214.055 178.513 214.484 177.791C214.8 177.261 215.111 176.725 215.421 176.189C215.692 175.712 215.962 175.228 216.226 174.745C216.365 174.486 216.51 174.235 216.649 173.976C217.21 172.943 217.751 171.89 218.279 170.837C218.919 169.565 219.533 168.274 220.121 166.969C221.388 164.168 222.55 161.306 223.586 158.379C223.962 157.313 224.319 156.233 224.668 155.154C224.767 154.836 224.873 154.518 224.979 154.193C225.276 153.233 225.56 152.266 225.83 151.292C226.081 150.398 226.319 149.491 226.543 148.583C226.833 147.431 227.104 146.272 227.362 145.106C227.731 143.397 228.068 141.675 228.358 139.94C228.477 139.232 228.576 138.516 228.682 137.808C228.741 137.397 228.807 136.993 228.866 136.582C228.873 136.536 228.88 136.496 228.886 136.45C228.899 136.35 228.919 136.258 228.932 136.158C229.091 134.953 229.223 133.741 229.342 132.529C229.401 131.913 229.467 131.304 229.513 130.681C229.52 130.628 229.527 130.582 229.527 130.529C229.632 129.204 229.725 127.873 229.784 126.535C229.817 125.866 229.837 125.197 229.857 124.522C229.857 124.502 229.857 124.482 229.857 124.462C229.87 123.978 229.883 123.488 229.89 123.005C229.896 122.508 229.903 122.011 229.903 121.515C229.876 120.303 229.843 119.018 229.804 117.739ZM216.47 142.066L216.286 142.318C216.312 142.258 216.332 142.199 216.358 142.139C216.398 142.099 216.444 142.06 216.484 142.02C216.484 142.033 216.477 142.046 216.47 142.066ZM216.807 155.968L216.787 155.909C216.794 155.922 216.794 155.935 216.8 155.948C216.807 155.955 216.807 155.962 216.807 155.968Z" fill="#FAE6C8"/>
<path d="M216.807 155.97C216.807 155.963 216.807 155.956 216.807 155.949C216.801 155.936 216.801 155.922 216.794 155.908L216.807 155.97Z" fill="#0B1B22"/>
<path d="M216.285 142.311L216.47 142.06C216.477 142.046 216.483 142.026 216.49 142.013C216.444 142.053 216.404 142.093 216.364 142.132C216.338 142.192 216.312 142.252 216.285 142.311Z" fill="#0B1B22"/>
</svg>
