<svg width="40" height="40" viewBox="0 0 40 40" fill="none" xmlns="http://www.w3.org/2000/svg">
<circle cx="20" cy="20" r="19.5" fill="#76C850" stroke="#D8D8D8"/>
<g opacity="0.8">
<path d="M9 14.1111C9 12.9452 9.98497 12 11.2 12H28.8C30.015 12 31 12.9452 31 14.1111V25.7222C31 26.8882 30.015 27.8333 28.8 27.8333H23.7556L20.7778 30.6908C20.3482 31.1031 19.6518 31.1031 19.2222 30.6908L16.2444 27.8333H11.2C9.98497 27.8333 9 26.8882 9 25.7222V14.1111ZM28.8 14.1111H11.2V25.7222H16.7C16.9917 25.7222 17.2715 25.8334 17.4778 26.0314L20 28.4517L22.5222 26.0314C22.7285 25.8334 23.0083 25.7222 23.3 25.7222H28.8V14.1111Z" fill="white"/>
<path d="M21.65 19.9167C21.65 20.7911 20.9113 21.5 20 21.5C19.0887 21.5 18.35 20.7911 18.35 19.9167C18.35 19.0422 19.0887 18.3333 20 18.3333C20.9113 18.3333 21.65 19.0422 21.65 19.9167Z" fill="white"/>
<path d="M26.05 19.9167C26.05 20.7911 25.3113 21.5 24.4 21.5C23.4887 21.5 22.75 20.7911 22.75 19.9167C22.75 19.0422 23.4887 18.3333 24.4 18.3333C25.3113 18.3333 26.05 19.0422 26.05 19.9167Z" fill="white"/>
<path d="M17.25 19.9167C17.25 20.7911 16.5113 21.5 15.6 21.5C14.6887 21.5 13.95 20.7911 13.95 19.9167C13.95 19.0422 14.6887 18.3333 15.6 18.3333C16.5113 18.3333 17.25 19.0422 17.25 19.9167Z" fill="white"/>
</g>
</svg>
